{"accessors" : [{"bufferView" : 0, "byteOffset" : 0, "componentType" : 5123, "count" : 1230, "type" : "SCALAR", "max" : [1140], "min" : [0]}, {"bufferView" : 1, "byteOffset" : 0, "componentType" : 5126, "count" : 1141, "type" : "VEC3", "max" : [35.65946578979492, 34.09344482421875, 43.21527099609375], "min" : [-46.50319290161133, -10.15057373046875, -45.251708984375], "name" : "POSITION"}, {"bufferView" : 1, "byteOffset" : 12, "componentType" : 5126, "count" : 1141, "type" : "VEC3", "max" : [0.9998000860214233, 1.0000038146972656, 0.9990342855453491], "min" : [-0.9998539090156555, -0.9999997019767761, -0.9984589219093323], "name" : "NORMAL"}, {"bufferView" : 1, "byteOffset" : 24, "componentType" : 5126, "count" : 1141, "type" : "VEC2", "max" : [0.9855980277061462, 0.9894310235977173], "min" : [0.012787999585270882, 0.007672000210732222], "name" : "TEXCOORD_0"}], "asset" : {"generator" : "Aspose.3D 23.2", "version" : "2.0"}, "buffers" : [{"uri" : "data:application/octet-stream;base64,", "byteLength" : 41828}], "bufferViews" : [{"buffer" : 0, "byteOffset" : 0, "byteLength" : 2460, "target" : 34963}, {"buffer" : 0, "byteOffset" : 2464, "byteLength" : 39360, "byteStride" : 32, "target" : 34962}], "images" : [{"uri" : "data:image/png;base64,"}], "materials" : [{"name" : "lambert5SG", "pbrMetallicRoughness" : {"baseColorFactor" : [1, 1, 1, 1], "baseColorTexture" : {"index" : 0, "texCoord" : 0}, "metallicFactor" : 0, "roughnessFactor" : 1}, "emissiveFactor" : [0, 0, 0], "alphaMode" : "OPAQUE", "doubleSided" : false}], "meshes" : [{"primitives" : [{"attributes" : {"POSITION" : 1, "NORMAL" : 2, "TEXCOORD_0" : 3}, "indices" : 0, "material" : 0, "mode" : 4}]}], "nodes" : [{"mesh" : 0, "name" : "Flying_seagull"}], "samplers" : [{"magFilter" : 9729, "minFilter" : 9986, "wrapS" : 10497, "wrapT" : 10497}], "scene" : 0, "scenes" : [{"nodes" : [0]}], "textures" : [{"sampler" : 0, "source" : 0, "name" : ""}]}